<?xml version="1.0" standalone="no"?>
<!DOCTYPE svg PUBLIC "-//W3C//DTD SVG 20010904//EN"
 "http://www.w3.org/TR/2001/REC-SVG-20010904/DTD/svg10.dtd">
<svg version="1.0" xmlns="http://www.w3.org/2000/svg"
 width="112.000000pt" height="112.000000pt" viewBox="0 0 112.000000 112.000000"
 preserveAspectRatio="xMidYMid meet">
<metadata>
Created by potrace 1.11, written by Peter Selinger 2001-2013
</metadata>
<g transform="translate(0.000000,112.000000) scale(0.100000,-0.100000)"
fill="#000000" stroke="none">
<path d="M318 1018 c-53 -24 -111 -88 -150 -166 -23 -46 -40 -67 -64 -78 -19
-9 -34 -20 -34 -24 0 -8 -35 -24 -55 -25 -6 0 -11 -129 -12 -362 l-3 -363 455
0 455 0 1 53 c1 28 0 62 -1 75 -2 26 37 112 51 112 5 0 18 9 30 21 16 16 18
23 9 34 -9 11 -6 17 14 30 31 21 42 51 25 72 -13 14 -39 79 -39 96 0 4 10 7
23 7 12 0 36 9 52 20 17 11 26 20 21 20 -5 0 -4 6 2 13 11 13 15 55 13 155 -1
50 -4 64 -18 68 -38 12 -63 28 -63 40 0 7 -24 24 -54 39 -45 22 -55 32 -66 66
-14 42 -69 98 -98 100 -9 1 -29 2 -43 3 -37 4 -130 -22 -151 -40 -16 -15 -19
-14 -44 5 -36 28 -122 53 -174 49 -23 -1 -60 -10 -82 -20z"/>
</g>
</svg>
